<svg width="331" height="188" viewBox="0 0 331 188" fill="none" xmlns="http://www.w3.org/2000/svg">
<path d="M312.926 119.729H278.797V136.794H300.14V153.857H278.797V170.921H312.926V187.985H261.78V102.666H312.926V119.729ZM126.269 102.697C129.421 102.865 132.525 103.506 135.449 104.6C138.888 105.886 142.012 107.771 144.644 110.147C147.275 112.524 149.363 115.346 150.787 118.451C152.211 121.556 152.944 124.885 152.944 128.246C152.944 131.607 152.211 134.936 150.787 138.041C149.564 140.708 147.85 143.163 145.724 145.31C147.85 147.456 149.564 149.912 150.787 152.579C152.211 155.684 152.944 159.013 152.944 162.374C152.944 165.735 152.211 169.063 150.787 172.168C149.363 175.273 147.275 178.095 144.644 180.472C142.012 182.848 138.888 184.734 135.449 186.021C132.525 187.115 129.421 187.754 126.269 187.922V187.969H84.7861V102.649H126.269V102.697ZM259.628 119.713H242.611V187.969H225.548V119.713H208.438V102.649H259.628V119.713ZM206.335 17.3311H189.271V170.904H206.287V187.968H155.096V170.904H172.207V17.3311H155.144V0.266602H206.335V17.3311ZM101.85 170.904H124.603V170.881C125.84 170.881 127.065 170.661 128.208 170.233C129.351 169.806 130.389 169.179 131.264 168.389C132.138 167.599 132.832 166.661 133.306 165.629C133.779 164.597 134.023 163.491 134.023 162.374C134.023 161.257 133.779 160.15 133.306 159.118C132.832 158.086 132.138 157.148 131.264 156.358C130.389 155.568 129.351 154.941 128.208 154.514C127.065 154.086 125.84 153.866 124.603 153.866V153.841H101.85V170.904ZM101.85 136.777H124.603V136.753C125.84 136.753 127.065 136.533 128.208 136.105C129.351 135.678 130.389 135.052 131.264 134.262C132.138 133.472 132.832 132.534 133.306 131.502C133.779 130.47 134.023 129.363 134.023 128.246C134.023 127.129 133.779 126.022 133.306 124.99C132.832 123.958 132.138 123.02 131.264 122.23C130.389 121.441 129.351 120.814 128.208 120.387C127.065 119.959 125.84 119.739 124.603 119.739V119.714H101.85V136.777ZM41.3818 0C64.2364 0 82.7636 18.5273 82.7637 41.3818C82.7637 54.9268 76.2555 66.9509 66.1963 74.5C66.3769 75.2205 66.5945 75.9305 66.8496 76.625C67.7046 78.9521 68.9584 81.0666 70.5381 82.8477C72.1177 84.6287 73.9928 86.0419 76.0566 87.0059C78.1207 87.9698 80.3333 88.4658 82.5674 88.4658V107.579C78.1071 107.579 73.6901 106.589 69.5693 104.664C65.4487 102.74 61.7046 99.9182 58.5508 96.3623C55.3971 92.8065 52.8953 88.5853 51.1885 83.9395C50.9247 83.2216 50.683 82.4945 50.459 81.7617C47.5377 82.4156 44.5004 82.7637 41.3818 82.7637C18.5273 82.7636 0 64.2364 0 41.3818C1.62988e-05 37.9732 0.414233 34.6612 1.19141 31.4922C6.93008 30.9119 11.4091 26.0665 11.4092 20.1748C11.4092 19.1894 11.2834 18.2331 11.0479 17.3213C11.1568 17.3244 11.2662 17.3301 11.376 17.3301C17.5831 17.33 22.6256 12.3589 22.7461 6.18066C24.716 7.81541 27.246 8.79881 30.0059 8.79883C35.4007 8.79883 39.9139 5.04217 41.083 0.00292969C41.1825 0.00222565 41.2821 1.16912e-07 41.3818 0ZM295.908 23.6133L312.938 0.266602H330.075L300.621 40.8252L330.126 85.6025H313.062L295.908 59.9492V85.6025H278.845V47.0078H278.844L278.845 47.0059V0.266602H295.908V23.6133ZM101.896 51.3193H101.852C101.89 55.829 103.683 60.1451 106.848 63.3369C110.048 66.564 114.388 68.3779 118.913 68.3779C123.439 68.3779 127.779 66.5641 130.979 63.3369C134.163 60.1265 135.958 55.7784 135.977 51.2402V0.266602H153.041V51.3193H153.039C153 60.393 149.41 69.0869 143.045 75.5059C136.645 81.96 127.964 85.5859 118.913 85.5859C109.862 85.5859 101.181 81.9601 94.7812 75.5059C88.4162 69.0869 84.8272 60.393 84.7881 51.3193H84.7871V51.2539C84.787 51.2257 84.7861 51.1971 84.7861 51.1689H84.7871V0.266602H101.896V51.3193ZM235.254 1.88867C242.952 -0.643049 251.152 -0.201611 258.614 3.14648C266.076 6.49481 272.394 12.568 276.611 20.4463L263.635 29.7656C261.166 25.1539 257.468 21.5987 253.1 19.6387C248.731 17.6786 243.93 17.4202 239.424 18.9023C234.917 20.3845 230.95 23.5268 228.123 27.8535C225.296 32.1803 223.761 37.4562 223.753 42.8828C223.745 48.3094 225.264 53.5916 228.078 57.9297C230.893 62.2677 234.85 65.4256 239.353 66.9258C243.855 68.4259 248.656 68.1868 253.03 66.2441C257.404 64.3015 261.113 60.7612 263.596 56.1592L276.544 65.5312C272.304 73.3924 265.968 79.4394 258.496 82.7578C251.024 86.0763 242.822 86.4855 235.131 83.9229C227.44 81.3602 220.68 75.9657 215.872 68.5557C211.064 61.1453 208.472 52.1223 208.485 42.8525C208.499 33.5828 211.118 24.5698 215.948 17.1787C220.778 9.78769 227.556 4.42054 235.254 1.88867ZM41.3818 17.1074C27.9756 17.1074 17.1075 27.9756 17.1074 41.3818C17.1074 54.7882 27.9755 65.6562 41.3818 65.6562C54.7882 65.6562 65.6562 54.7882 65.6562 41.3818C65.6561 27.9756 54.7881 17.1074 41.3818 17.1074Z" fill="#00150F"/>
</svg>
